<svg width="848" height="1003" viewBox="0 0 848 1003" fill="none" xmlns="http://www.w3.org/2000/svg">
<path d="M87.0801 1000.7L119.039 854L239.354 875.261L167.917 1002.83L141.598 968.811L87.0801 1000.7Z" fill="#3A3A3A"/>
<path d="M113 195.622C154.892 -29.7549 285.056 68.0042 339.291 145.056C344.901 228.128 237.778 259.427 193.417 222.711C167.235 201.04 123.598 190.205 113 195.622Z" fill="#3A3A3A"/>
<path d="M735.514 196.626C693.435 -28.7513 562.69 69.0079 508.213 146.06C502.577 229.131 610.179 260.43 654.737 223.714C681.037 202.044 724.869 191.208 735.514 196.626Z" fill="#3A3A3A"/>
<path d="M27.1078 575.432L417.211 0L814.741 575.432C962.647 827.88 578.091 1072.9 417.211 785.187C254.544 1069.19 -100.429 822.312 27.1078 575.432Z" fill="#3A3A3A"/>
<path d="M64.0897 512.413C-90.8436 359.227 75.1524 315.35 182.137 358.111L132.337 426.895C67.7746 400.866 83.7671 468.416 89.9152 488.245L64.0897 477.091V512.413Z" fill="#3A3A3A"/>
<path d="M779.344 512.413C935.98 359.227 768.16 315.35 660 358.111L710.347 426.895C775.619 400.866 759.45 468.416 753.235 488.245L779.344 477.091V512.413Z" fill="#3A3A3A"/>
<ellipse cx="219.454" cy="686.713" rx="108.483" ry="109.375" fill="#1A1A1A"/>
<ellipse cx="633.977" cy="686.713" rx="108.98" ry="109.375" fill="#1A1A1A"/>
<path d="M779.279 1000.7L747.529 854L628 875.261L698.97 1002.83L725.117 968.811L779.279 1000.7Z" fill="#3A3A3A"/>
</svg>
