<svg width="636" height="747" viewBox="0 0 636 747" fill="none" xmlns="http://www.w3.org/2000/svg">
<path d="M65.2871 744.964L89.2477 634.976L179.452 650.916L125.893 746.558L106.161 721.053L65.2871 744.964Z" fill="#3A3A3A"/>
<path d="M557.022 744.964L533.218 634.976L443.604 650.916L496.812 746.558L516.416 721.053L557.022 744.964Z" fill="#3A3A3A"/>
<path d="M84.7207 146.666C116.128 -22.3074 213.717 50.9859 254.378 108.754C258.585 171.036 178.271 194.502 145.012 166.975C125.382 150.727 92.6661 142.604 84.7207 146.666Z" fill="#3A3A3A"/>
<path d="M551.439 147.418C519.892 -21.5554 421.868 51.7379 381.024 109.506C376.799 171.788 457.472 195.254 490.879 167.726C510.596 151.479 543.459 143.356 551.439 147.418Z" fill="#3A3A3A"/>
<path d="M20.3236 431.421L312.797 0L610.839 431.421C721.729 620.69 433.414 804.392 312.797 588.681C190.84 801.609 -75.2951 616.515 20.3236 431.421Z" fill="#3A3A3A"/>
<path d="M48.0515 384.173C-68.1073 269.325 56.3456 236.428 136.555 268.488L99.2185 320.058C50.8142 300.543 62.8043 351.187 67.4138 366.054L48.0515 357.691V384.173Z" fill="#3A3A3A"/>
<path d="M584.3 384.173C701.735 269.325 575.915 236.428 494.824 268.488L532.571 320.058C581.507 300.543 569.385 351.187 564.725 366.054L584.3 357.691V384.173Z" fill="#3A3A3A"/>
<ellipse cx="164.533" cy="514.852" rx="81.3333" ry="82.0019" fill="#1A1A1A"/>
<ellipse cx="475.314" cy="514.852" rx="81.7064" ry="82.0019" fill="#1A1A1A"/>
</svg>
