<svg width="844" height="554" viewBox="0 0 844 554" fill="none" xmlns="http://www.w3.org/2000/svg">
<path d="M0 328.5H309V11H844V188H509V328.5V553.5H0V328.5Z" fill="#D9D9D9"/>
<path d="M317.367 47L327.94 31.799L327.916 35.0598L317.918 20.5301H322.905L326.262 25.685C327.077 26.9478 327.804 28.1466 328.444 29.2815C329.083 30.4004 329.738 31.4953 330.41 32.5662H328.204C328.891 31.4953 329.531 30.4004 330.122 29.2815C330.714 28.1466 331.425 26.9478 332.256 25.685L335.685 20.5301H340.576L330.53 35.2036V32.0387L341.007 47H336.044L332.088 41.0299C331.289 39.7991 330.578 38.6402 329.954 37.5533C329.331 36.4664 328.691 35.4114 328.036 34.3884H330.266C329.611 35.4114 328.987 36.4664 328.396 37.5533C327.82 38.6402 327.125 39.7991 326.31 41.0299L322.306 47H317.367ZM343.741 47L354.314 31.799L354.29 35.0598L344.292 20.5301H349.279L352.636 25.685C353.451 26.9478 354.178 28.1466 354.818 29.2815C355.457 30.4004 356.112 31.4953 356.784 32.5662H354.578C355.265 31.4953 355.905 30.4004 356.496 29.2815C357.088 28.1466 357.799 26.9478 358.63 25.685L362.059 20.5301H366.95L356.904 35.2036V32.0387L367.381 47H362.418L358.462 41.0299C357.663 39.7991 356.952 38.6402 356.328 37.5533C355.705 36.4664 355.066 35.4114 354.41 34.3884H356.64C355.985 35.4114 355.361 36.4664 354.77 37.5533C354.194 38.6402 353.499 39.7991 352.684 41.0299L348.68 47H343.741ZM370.115 47L380.688 31.799L380.664 35.0598L370.666 20.5301H375.653L379.01 25.685C379.825 26.9478 380.552 28.1466 381.192 29.2815C381.831 30.4004 382.486 31.4953 383.158 32.5662H380.952C381.639 31.4953 382.279 30.4004 382.87 29.2815C383.462 28.1466 384.173 26.9478 385.004 25.685L388.433 20.5301H393.324L383.278 35.2036V32.0387L393.755 47H388.792L384.836 41.0299C384.037 39.7991 383.326 38.6402 382.702 37.5533C382.079 36.4664 381.44 35.4114 380.784 34.3884H383.014C382.359 35.4114 381.735 36.4664 381.144 37.5533C380.568 38.6402 379.873 39.7991 379.058 41.0299L375.054 47H370.115ZM396.489 47L407.062 31.799L407.038 35.0598L397.04 20.5301H402.027L405.384 25.685C406.199 26.9478 406.926 28.1466 407.566 29.2815C408.205 30.4004 408.861 31.4953 409.532 32.5662H407.326C408.013 31.4953 408.653 30.4004 409.244 29.2815C409.836 28.1466 410.547 26.9478 411.378 25.685L414.807 20.5301H419.698L409.652 35.2036V32.0387L420.129 47H415.166L411.21 41.0299C410.411 39.7991 409.7 38.6402 409.076 37.5533C408.453 36.4664 407.814 35.4114 407.158 34.3884H409.388C408.733 35.4114 408.109 36.4664 407.518 37.5533C406.942 38.6402 406.247 39.7991 405.432 41.0299L401.428 47H396.489ZM422.863 47L433.436 31.799L433.412 35.0598L423.414 20.5301H428.401L431.758 25.685C432.573 26.9478 433.3 28.1466 433.94 29.2815C434.579 30.4004 435.235 31.4953 435.906 32.5662H433.7C434.387 31.4953 435.027 30.4004 435.618 29.2815C436.21 28.1466 436.921 26.9478 437.752 25.685L441.181 20.5301H446.072L436.026 35.2036V32.0387L446.503 47H441.54L437.584 41.0299C436.785 39.7991 436.074 38.6402 435.45 37.5533C434.827 36.4664 434.188 35.4114 433.532 34.3884H435.762C435.107 35.4114 434.483 36.4664 433.892 37.5533C433.316 38.6402 432.621 39.7991 431.806 41.0299L427.802 47H422.863ZM449.237 47L459.81 31.799L459.786 35.0598L449.788 20.5301H454.775L458.132 25.685C458.947 26.9478 459.674 28.1466 460.314 29.2815C460.953 30.4004 461.609 31.4953 462.28 32.5662H460.074C460.761 31.4953 461.401 30.4004 461.992 29.2815C462.584 28.1466 463.295 26.9478 464.126 25.685L467.555 20.5301H472.446L462.4 35.2036V32.0387L472.877 47H467.914L463.958 41.0299C463.159 39.7991 462.448 38.6402 461.824 37.5533C461.201 36.4664 460.562 35.4114 459.906 34.3884H462.136C461.481 35.4114 460.857 36.4664 460.266 37.5533C459.69 38.6402 458.995 39.7991 458.18 41.0299L454.176 47H449.237ZM475.611 47L486.184 31.799L486.16 35.0598L476.162 20.5301H481.149L484.506 25.685C485.321 26.9478 486.048 28.1466 486.688 29.2815C487.327 30.4004 487.983 31.4953 488.654 32.5662H486.448C487.135 31.4953 487.775 30.4004 488.366 29.2815C488.958 28.1466 489.669 26.9478 490.5 25.685L493.929 20.5301H498.82L488.774 35.2036V32.0387L499.251 47H494.288L490.332 41.0299C489.533 39.7991 488.822 38.6402 488.198 37.5533C487.575 36.4664 486.936 35.4114 486.28 34.3884H488.51C487.855 35.4114 487.231 36.4664 486.64 37.5533C486.064 38.6402 485.369 39.7991 484.554 41.0299L480.55 47H475.611Z" fill="#585858"/>
<path d="M432.439 137.023L443.013 121.822L442.989 125.083L432.99 110.554H437.977L441.334 115.708C442.149 116.971 442.877 118.17 443.516 119.305C444.155 120.424 444.811 121.519 445.482 122.59H443.276C443.964 121.519 444.603 120.424 445.194 119.305C445.786 118.17 446.497 116.971 447.328 115.708L450.757 110.554H455.648L445.602 125.227V122.062L456.08 137.023H451.117L447.16 131.053C446.361 129.823 445.65 128.664 445.027 127.577C444.403 126.49 443.764 125.435 443.108 124.412H445.338C444.683 125.435 444.059 126.49 443.468 127.577C442.893 128.664 442.197 129.823 441.382 131.053L437.378 137.023H432.439ZM458.813 137.023L469.387 121.822L469.363 125.083L459.364 110.554H464.351L467.708 115.708C468.523 116.971 469.251 118.17 469.89 119.305C470.529 120.424 471.185 121.519 471.856 122.59H469.65C470.338 121.519 470.977 120.424 471.568 119.305C472.16 118.17 472.871 116.971 473.702 115.708L477.131 110.554H482.022L471.976 125.227V122.062L482.454 137.023H477.491L473.534 131.053C472.735 129.823 472.024 128.664 471.401 127.577C470.777 126.49 470.138 125.435 469.482 124.412H471.712C471.057 125.435 470.433 126.49 469.842 127.577C469.267 128.664 468.571 129.823 467.756 131.053L463.752 137.023H458.813ZM485.187 137.023L495.761 121.822L495.737 125.083L485.738 110.554H490.725L494.082 115.708C494.897 116.971 495.625 118.17 496.264 119.305C496.903 120.424 497.559 121.519 498.23 122.59H496.024C496.712 121.519 497.351 120.424 497.942 119.305C498.534 118.17 499.245 116.971 500.076 115.708L503.505 110.554H508.396L498.35 125.227V122.062L508.828 137.023H503.865L499.908 131.053C499.109 129.823 498.398 128.664 497.775 127.577C497.151 126.49 496.512 125.435 495.856 124.412H498.086C497.431 125.435 496.807 126.49 496.216 127.577C495.641 128.664 494.945 129.823 494.13 131.053L490.126 137.023H485.187ZM511.561 137.023L522.135 121.822L522.111 125.083L512.112 110.554H517.1L520.456 115.708C521.271 116.971 521.999 118.17 522.638 119.305C523.277 120.424 523.933 121.519 524.604 122.59H522.398C523.086 121.519 523.725 120.424 524.316 119.305C524.908 118.17 525.619 116.971 526.45 115.708L529.879 110.554H534.77L524.724 125.227V122.062L535.202 137.023H530.239L526.282 131.053C525.483 129.823 524.772 128.664 524.149 127.577C523.525 126.49 522.886 125.435 522.23 124.412H524.46C523.805 125.435 523.182 126.49 522.59 127.577C522.015 128.664 521.319 129.823 520.504 131.053L516.5 137.023H511.561ZM537.935 137.023L548.509 121.822L548.485 125.083L538.486 110.554H543.474L546.83 115.708C547.645 116.971 548.373 118.17 549.012 119.305C549.651 120.424 550.307 121.519 550.978 122.59H548.772C549.46 121.519 550.099 120.424 550.69 119.305C551.282 118.17 551.993 116.971 552.824 115.708L556.253 110.554H561.144L551.098 125.227V122.062L561.576 137.023H556.613L552.656 131.053C551.857 129.823 551.146 128.664 550.523 127.577C549.899 126.49 549.26 125.435 548.604 124.412H550.834C550.179 125.435 549.556 126.49 548.964 127.577C548.389 128.664 547.693 129.823 546.878 131.053L542.874 137.023H537.935ZM564.309 137.023L574.883 121.822L574.859 125.083L564.86 110.554H569.848L573.204 115.708C574.019 116.971 574.747 118.17 575.386 119.305C576.025 120.424 576.681 121.519 577.352 122.59H575.146C575.834 121.519 576.473 120.424 577.064 119.305C577.656 118.17 578.367 116.971 579.198 115.708L582.627 110.554H587.518L577.472 125.227V122.062L587.95 137.023H582.987L579.03 131.053C578.231 129.823 577.52 128.664 576.897 127.577C576.273 126.49 575.634 125.435 574.978 124.412H577.208C576.553 125.435 575.93 126.49 575.338 127.577C574.763 128.664 574.067 129.823 573.252 131.053L569.248 137.023H564.309ZM590.683 137.023L601.257 121.822L601.233 125.083L591.234 110.554H596.222L599.578 115.708C600.393 116.971 601.121 118.17 601.76 119.305C602.399 120.424 603.055 121.519 603.726 122.59H601.52C602.208 121.519 602.847 120.424 603.438 119.305C604.03 118.17 604.741 116.971 605.572 115.708L609.001 110.554H613.892L603.846 125.227V122.062L614.324 137.023H609.361L605.404 131.053C604.605 129.823 603.894 128.664 603.271 127.577C602.647 126.49 602.008 125.435 601.352 124.412H603.582C602.927 125.435 602.304 126.49 601.712 127.577C601.137 128.664 600.441 129.823 599.626 131.053L595.622 137.023H590.683ZM617.057 137.023L627.631 121.822L627.607 125.083L617.608 110.554H622.596L625.952 115.708C626.767 116.971 627.495 118.17 628.134 119.305C628.773 120.424 629.429 121.519 630.1 122.59H627.894C628.582 121.519 629.221 120.424 629.812 119.305C630.404 118.17 631.115 116.971 631.946 115.708L635.375 110.554H640.266L630.22 125.227V122.062L640.698 137.023H635.735L631.779 131.053C630.979 129.823 630.268 128.664 629.645 127.577C629.021 126.49 628.382 125.435 627.727 124.412H629.956C629.301 125.435 628.678 126.49 628.086 127.577C627.511 128.664 626.815 129.823 626 131.053L621.996 137.023H617.057Z" fill="#585858"/>
<path d="M654.865 137.023L665.438 121.822L665.414 125.083L655.416 110.554H660.403L663.76 115.708C664.575 116.971 665.302 118.17 665.942 119.305C666.581 120.424 667.237 121.519 667.908 122.59H665.702C666.389 121.519 667.029 120.424 667.62 119.305C668.212 118.17 668.923 116.971 669.754 115.708L673.183 110.554H678.074L668.028 125.227V122.062L678.505 137.023H673.542L669.586 131.053C668.787 129.823 668.076 128.664 667.452 127.577C666.829 126.49 666.19 125.435 665.534 124.412H667.764C667.109 125.435 666.485 126.49 665.894 127.577C665.318 128.664 664.623 129.823 663.808 131.053L659.804 137.023H654.865ZM681.239 137.023L691.812 121.822L691.788 125.083L681.79 110.554H686.777L690.134 115.708C690.949 116.971 691.676 118.17 692.316 119.305C692.955 120.424 693.611 121.519 694.282 122.59H692.076C692.763 121.519 693.403 120.424 693.994 119.305C694.586 118.17 695.297 116.971 696.128 115.708L699.557 110.554H704.448L694.402 125.227V122.062L704.879 137.023H699.916L695.96 131.053C695.161 129.823 694.45 128.664 693.826 127.577C693.203 126.49 692.564 125.435 691.908 124.412H694.138C693.483 125.435 692.859 126.49 692.268 127.577C691.692 128.664 690.997 129.823 690.182 131.053L686.178 137.023H681.239ZM707.613 137.023L718.186 121.822L718.162 125.083L708.164 110.554H713.151L716.508 115.708C717.323 116.971 718.05 118.17 718.69 119.305C719.329 120.424 719.985 121.519 720.656 122.59H718.45C719.137 121.519 719.777 120.424 720.368 119.305C720.96 118.17 721.671 116.971 722.502 115.708L725.931 110.554H730.822L720.776 125.227V122.062L731.253 137.023H726.29L722.334 131.053C721.535 129.823 720.824 128.664 720.2 127.577C719.577 126.49 718.938 125.435 718.282 124.412H720.512C719.857 125.435 719.233 126.49 718.642 127.577C718.066 128.664 717.371 129.823 716.556 131.053L712.552 137.023H707.613ZM733.987 137.023L744.56 121.822L744.536 125.083L734.538 110.554H739.525L742.882 115.708C743.697 116.971 744.424 118.17 745.064 119.305C745.703 120.424 746.359 121.519 747.03 122.59H744.824C745.511 121.519 746.151 120.424 746.742 119.305C747.334 118.17 748.045 116.971 748.876 115.708L752.305 110.554H757.196L747.15 125.227V122.062L757.627 137.023H752.664L748.708 131.053C747.909 129.823 747.198 128.664 746.574 127.577C745.951 126.49 745.312 125.435 744.656 124.412H746.886C746.231 125.435 745.607 126.49 745.016 127.577C744.44 128.664 743.745 129.823 742.93 131.053L738.926 137.023H733.987ZM760.361 137.023L770.934 121.822L770.91 125.083L760.912 110.554H765.899L769.256 115.708C770.071 116.971 770.798 118.17 771.438 119.305C772.077 120.424 772.733 121.519 773.404 122.59H771.198C771.885 121.519 772.525 120.424 773.116 119.305C773.708 118.17 774.419 116.971 775.25 115.708L778.679 110.554H783.57L773.524 125.227V122.062L784.001 137.023H779.038L775.082 131.053C774.283 129.823 773.572 128.664 772.948 127.577C772.325 126.49 771.686 125.435 771.03 124.412H773.26C772.605 125.435 771.981 126.49 771.39 127.577C770.814 128.664 770.119 129.823 769.304 131.053L765.3 137.023H760.361ZM786.735 137.023L797.308 121.822L797.284 125.083L787.286 110.554H792.273L795.63 115.708C796.445 116.971 797.172 118.17 797.812 119.305C798.451 120.424 799.107 121.519 799.778 122.59H797.572C798.259 121.519 798.899 120.424 799.49 119.305C800.082 118.17 800.793 116.971 801.624 115.708L805.053 110.554H809.944L799.898 125.227V122.062L810.375 137.023H805.412L801.456 131.053C800.657 129.823 799.946 128.664 799.322 127.577C798.699 126.49 798.06 125.435 797.404 124.412H799.634C798.979 125.435 798.355 126.49 797.764 127.577C797.188 128.664 796.493 129.823 795.678 131.053L791.674 137.023H786.735ZM813.109 137.023L823.682 121.822L823.658 125.083L813.66 110.554H818.647L822.004 115.708C822.819 116.971 823.546 118.17 824.186 119.305C824.825 120.424 825.481 121.519 826.152 122.59H823.946C824.633 121.519 825.273 120.424 825.864 119.305C826.456 118.17 827.167 116.971 827.998 115.708L831.427 110.554H836.318L826.272 125.227V122.062L836.749 137.023H831.786L827.83 131.053C827.031 129.823 826.32 128.664 825.696 127.577C825.073 126.49 824.434 125.435 823.778 124.412H826.008C825.353 125.435 824.729 126.49 824.138 127.577C823.562 128.664 822.867 129.823 822.052 131.053L818.048 137.023H813.109Z" fill="#585858"/>
<path d="M316.367 137.023L326.94 121.822L326.916 125.083L316.918 110.554H321.905L325.262 115.708C326.077 116.971 326.804 118.17 327.444 119.305C328.083 120.424 328.738 121.519 329.41 122.59H327.204C327.891 121.519 328.531 120.424 329.122 119.305C329.714 118.17 330.425 116.971 331.256 115.708L334.685 110.554H339.576L329.53 125.227V122.062L340.007 137.023H335.044L331.088 131.053C330.289 129.823 329.578 128.664 328.954 127.577C328.331 126.49 327.691 125.435 327.036 124.412H329.266C328.611 125.435 327.987 126.49 327.396 127.577C326.82 128.664 326.125 129.823 325.31 131.053L321.306 137.023H316.367ZM342.741 137.023L353.314 121.822L353.29 125.083L343.292 110.554H348.279L351.636 115.708C352.451 116.971 353.178 118.17 353.818 119.305C354.457 120.424 355.112 121.519 355.784 122.59H353.578C354.265 121.519 354.905 120.424 355.496 119.305C356.088 118.17 356.799 116.971 357.63 115.708L361.059 110.554H365.95L355.904 125.227V122.062L366.381 137.023H361.418L357.462 131.053C356.663 129.823 355.952 128.664 355.328 127.577C354.705 126.49 354.066 125.435 353.41 124.412H355.64C354.985 125.435 354.361 126.49 353.77 127.577C353.194 128.664 352.499 129.823 351.684 131.053L347.68 137.023H342.741ZM369.115 137.023L379.688 121.822L379.664 125.083L369.666 110.554H374.653L378.01 115.708C378.825 116.971 379.552 118.17 380.192 119.305C380.831 120.424 381.486 121.519 382.158 122.59H379.952C380.639 121.519 381.279 120.424 381.87 119.305C382.462 118.17 383.173 116.971 384.004 115.708L387.433 110.554H392.324L382.278 125.227V122.062L392.755 137.023H387.792L383.836 131.053C383.037 129.823 382.326 128.664 381.702 127.577C381.079 126.49 380.44 125.435 379.784 124.412H382.014C381.359 125.435 380.735 126.49 380.144 127.577C379.568 128.664 378.873 129.823 378.058 131.053L374.054 137.023H369.115ZM395.489 137.023L406.062 121.822L406.038 125.083L396.04 110.554H401.027L404.384 115.708C405.199 116.971 405.926 118.17 406.566 119.305C407.205 120.424 407.861 121.519 408.532 122.59H406.326C407.013 121.519 407.653 120.424 408.244 119.305C408.836 118.17 409.547 116.971 410.378 115.708L413.807 110.554H418.698L408.652 125.227V122.062L419.129 137.023H414.166L410.21 131.053C409.411 129.823 408.7 128.664 408.076 127.577C407.453 126.49 406.814 125.435 406.158 124.412H408.388C407.733 125.435 407.109 126.49 406.518 127.577C405.942 128.664 405.247 129.823 404.432 131.053L400.428 137.023H395.489Z" fill="#585858"/>
<path d="M369.775 215.262L380.348 200.061L380.324 203.322L370.326 188.792H375.313L378.67 193.947C379.485 195.21 380.213 196.409 380.852 197.544C381.491 198.663 382.147 199.757 382.818 200.828H380.612C381.3 199.757 381.939 198.663 382.53 197.544C383.122 196.409 383.833 195.21 384.664 193.947L388.093 188.792H392.984L382.938 203.466V200.301L393.416 215.262H388.452L384.496 209.292C383.697 208.061 382.986 206.902 382.362 205.816C381.739 204.729 381.1 203.674 380.444 202.651H382.674C382.019 203.674 381.395 204.729 380.804 205.816C380.229 206.902 379.533 208.061 378.718 209.292L374.714 215.262H369.775Z" fill="#585858"/>
<path d="M370.601 268.262L381.175 253.061L381.151 256.322L371.152 241.792H376.14L379.496 246.947C380.311 248.21 381.039 249.409 381.678 250.544C382.317 251.663 382.973 252.757 383.644 253.828H381.438C382.126 252.757 382.765 251.663 383.356 250.544C383.948 249.409 384.659 248.21 385.49 246.947L388.919 241.792H393.81L383.764 256.466V253.301L394.242 268.262H389.279L385.323 262.292C384.523 261.061 383.812 259.902 383.189 258.816C382.565 257.729 381.926 256.674 381.271 255.651H383.5C382.845 256.674 382.222 257.729 381.63 258.816C381.055 259.902 380.359 261.061 379.544 262.292L375.54 268.262H370.601Z" fill="#585858"/>
<path d="M370.601 320.55L381.175 305.349L381.151 308.61L371.152 294.08H376.14L379.496 299.235C380.311 300.498 381.039 301.696 381.678 302.831C382.317 303.95 382.973 305.045 383.644 306.116H381.438C382.126 305.045 382.765 303.95 383.356 302.831C383.948 301.696 384.659 300.498 385.49 299.235L388.919 294.08H393.81L383.764 308.753V305.589L394.242 320.55H389.279L385.323 314.58C384.523 313.349 383.812 312.19 383.189 311.103C382.565 310.016 381.926 308.961 381.271 307.938H383.5C382.845 308.961 382.222 310.016 381.63 311.103C381.055 312.19 380.359 313.349 379.544 314.58L375.54 320.55H370.601Z" fill="#585858"/>
<path d="M387.156 363L397.729 347.799L397.705 351.06L387.707 336.53H392.694L396.051 341.685C396.866 342.948 397.593 344.147 398.233 345.281C398.872 346.4 399.528 347.495 400.199 348.566H397.993C398.68 347.495 399.32 346.4 399.911 345.281C400.503 344.147 401.214 342.948 402.045 341.685L405.474 336.53H410.365L400.319 351.204V348.039L410.796 363H405.833L401.877 357.03C401.078 355.799 400.367 354.64 399.743 353.553C399.12 352.466 398.481 351.411 397.825 350.388H400.055C399.4 351.411 398.776 352.466 398.185 353.553C397.609 354.64 396.914 355.799 396.099 357.03L392.095 363H387.156Z" fill="#585858"/>
<path d="M202.195 363L212.768 347.799L212.744 351.06L202.746 336.53H207.733L211.09 341.685C211.905 342.948 212.632 344.147 213.272 345.281C213.911 346.4 214.567 347.495 215.238 348.566H213.032C213.719 347.495 214.359 346.4 214.95 345.281C215.542 344.147 216.253 342.948 217.084 341.685L220.513 336.53H225.404L215.358 351.204V348.039L225.835 363H220.872L216.916 357.03C216.117 355.799 215.406 354.64 214.782 353.553C214.159 352.466 213.52 351.411 212.864 350.388H215.094C214.439 351.411 213.815 352.466 213.224 353.553C212.648 354.64 211.953 355.799 211.138 357.03L207.134 363H202.195Z" fill="#585858"/>
<path d="M165.771 460.871L176.345 445.67L176.321 448.93L166.322 434.401H171.309L174.666 439.556C175.481 440.818 176.209 442.017 176.848 443.152C177.487 444.271 178.143 445.366 178.814 446.437H176.608C177.296 445.366 177.935 444.271 178.526 443.152C179.118 442.017 179.829 440.818 180.66 439.556L184.089 434.401H188.98L178.934 449.074V445.909L189.412 460.871H184.449L180.492 454.9C179.693 453.67 178.982 452.511 178.359 451.424C177.735 450.337 177.096 449.282 176.44 448.259H178.67C178.015 449.282 177.392 450.337 176.8 451.424C176.225 452.511 175.529 453.67 174.714 454.9L170.71 460.871H165.771Z" fill="#585858"/>
<path d="M51.1987 460.871L61.7723 445.67L61.7483 448.93L51.7501 434.401H56.7372L60.0939 439.556C60.9091 440.818 61.6364 442.017 62.2758 443.152C62.9151 444.271 63.5705 445.366 64.2418 446.437H62.036C62.7233 445.366 63.3627 444.271 63.9541 443.152C64.5455 442.017 65.2568 440.818 66.088 439.556L69.5166 434.401H74.4078L64.3617 449.074V445.909L74.8394 460.871H69.8763L65.9202 454.9C65.121 453.67 64.4097 452.511 63.7863 451.424C63.1629 450.337 62.5235 449.282 61.8682 448.259H64.098C63.4426 449.282 62.8192 450.337 62.2278 451.424C61.6524 452.511 60.9571 453.67 60.1419 454.9L56.1378 460.871H51.1987Z" fill="#585858"/>
<path d="M475.775 215.262L486.348 200.061L486.324 203.322L476.326 188.792H481.313L484.67 193.947C485.485 195.21 486.213 196.409 486.852 197.544C487.491 198.663 488.147 199.757 488.818 200.828H486.612C487.3 199.757 487.939 198.663 488.53 197.544C489.122 196.409 489.833 195.21 490.664 193.947L494.093 188.792H498.984L488.938 203.466V200.301L499.416 215.262H494.452L490.496 209.292C489.697 208.061 488.986 206.902 488.362 205.816C487.739 204.729 487.1 203.674 486.444 202.651H488.674C488.019 203.674 487.395 204.729 486.804 205.816C486.229 206.902 485.533 208.061 484.718 209.292L480.714 215.262H475.775Z" fill="#585858"/>
<path d="M478.253 268.262L488.827 253.061L488.803 256.322L478.805 241.792H483.792L487.149 246.947C487.964 248.21 488.691 249.409 489.33 250.544C489.97 251.663 490.625 252.757 491.297 253.828H489.091C489.778 252.757 490.417 251.663 491.009 250.544C491.6 249.409 492.312 248.21 493.143 246.947L496.571 241.792H501.463L491.416 256.466V253.301L501.894 268.262H496.931L492.975 262.292C492.176 261.061 491.464 259.902 490.841 258.816C490.218 257.729 489.578 256.674 488.923 255.651H491.153C490.497 256.674 489.874 257.729 489.283 258.816C488.707 259.902 488.012 261.061 487.197 262.292L483.193 268.262H478.253Z" fill="#585858"/>
<path d="M478.253 320.55L488.827 305.349L488.803 308.61L478.805 294.08H483.792L487.149 299.235C487.964 300.498 488.691 301.696 489.33 302.831C489.97 303.95 490.625 305.045 491.297 306.116H489.091C489.778 305.045 490.417 303.95 491.009 302.831C491.6 301.696 492.312 300.498 493.143 299.235L496.571 294.08H501.463L491.416 308.753V305.589L501.894 320.55H496.931L492.975 314.58C492.176 313.349 491.464 312.19 490.841 311.103C490.218 310.016 489.578 308.961 488.923 307.938H491.153C490.497 308.961 489.874 310.016 489.283 311.103C488.707 312.19 488.012 313.349 487.197 314.58L483.193 320.55H478.253Z" fill="#585858"/>
<path d="M478.814 363L489.388 347.799L489.364 351.06L479.365 336.53H484.352L487.709 341.685C488.524 342.948 489.252 344.147 489.891 345.281C490.53 346.4 491.186 347.495 491.857 348.566H489.651C490.339 347.495 490.978 346.4 491.569 345.281C492.161 344.147 492.872 342.948 493.703 341.685L497.132 336.53H502.023L491.977 351.204V348.039L502.455 363H497.492L493.535 357.03C492.736 355.799 492.025 354.64 491.402 353.553C490.778 352.466 490.139 351.411 489.483 350.388H491.713C491.058 351.411 490.434 352.466 489.843 353.553C489.268 354.64 488.572 355.799 487.757 357.03L483.753 363H478.814Z" fill="#585858"/>
<path d="M293.859 363L304.432 347.799L304.408 351.06L294.41 336.53H299.397L302.754 341.685C303.569 342.948 304.297 344.147 304.936 345.281C305.575 346.4 306.231 347.495 306.902 348.566H304.696C305.383 347.495 306.023 346.4 306.614 345.281C307.206 344.147 307.917 342.948 308.748 341.685L312.177 336.53H317.068L307.022 351.204V348.039L317.5 363H312.536L308.58 357.03C307.781 355.799 307.07 354.64 306.446 353.553C305.823 352.466 305.184 351.411 304.528 350.388H306.758C306.103 351.411 305.479 352.466 304.888 353.553C304.313 354.64 303.617 355.799 302.802 357.03L298.798 363H293.859Z" fill="#585858"/>
<path d="M257.435 460.871L268.009 445.67L267.985 448.93L257.986 434.401H262.974L266.33 439.556C267.145 440.818 267.873 442.017 268.512 443.152C269.151 444.271 269.807 445.366 270.478 446.437H268.272C268.96 445.366 269.599 444.271 270.19 443.152C270.782 442.017 271.493 440.818 272.324 439.556L275.753 434.401H280.644L270.598 449.074V445.909L281.076 460.871H276.113L272.157 454.9C271.357 453.67 270.646 452.511 270.023 451.424C269.399 450.337 268.76 449.282 268.105 448.259H270.334C269.679 449.282 269.056 450.337 268.464 451.424C267.889 452.511 267.193 453.67 266.378 454.9L262.374 460.871H257.435Z" fill="#585858"/>
<path d="M142.857 460.871L153.43 445.67L153.406 448.93L143.408 434.401H148.395L151.752 439.556C152.567 440.818 153.295 442.017 153.934 443.152C154.573 444.271 155.229 445.366 155.9 446.437H153.694C154.382 445.366 155.021 444.271 155.612 443.152C156.204 442.017 156.915 440.818 157.746 439.556L161.175 434.401H166.066L156.02 449.074V445.909L166.498 460.871H161.534L157.578 454.9C156.779 453.67 156.068 452.511 155.444 451.424C154.821 450.337 154.182 449.282 153.526 448.259H155.756C155.101 449.282 154.477 450.337 153.886 451.424C153.311 452.511 152.615 453.67 151.8 454.9L147.796 460.871H142.857Z" fill="#585858"/>
<path d="M759.304 47L769.878 31.799L769.854 35.0598L759.856 20.5301H764.843L768.199 25.685C769.015 26.9478 769.742 28.1466 770.381 29.2815C771.021 30.4004 771.676 31.4953 772.347 32.5662H770.141C770.829 31.4953 771.468 30.4004 772.06 29.2815C772.651 28.1466 773.362 26.9478 774.193 25.685L777.622 20.5301H782.513L772.467 35.2036V32.0387L782.945 47H777.982L774.026 41.0299C773.226 39.7991 772.515 38.6402 771.892 37.5533C771.268 36.4664 770.629 35.4114 769.974 34.3884H772.203C771.548 35.4114 770.925 36.4664 770.333 37.5533C769.758 38.6402 769.063 39.7991 768.247 41.0299L764.243 47H759.304ZM785.678 47L796.252 31.799L796.228 35.0598L786.23 20.5301H791.217L794.573 25.685C795.389 26.9478 796.116 28.1466 796.755 29.2815C797.395 30.4004 798.05 31.4953 798.721 32.5662H796.515C797.203 31.4953 797.842 30.4004 798.434 29.2815C799.025 28.1466 799.736 26.9478 800.567 25.685L803.996 20.5301H808.887L798.841 35.2036V32.0387L809.319 47H804.356L800.4 41.0299C799.6 39.7991 798.889 38.6402 798.266 37.5533C797.642 36.4664 797.003 35.4114 796.348 34.3884H798.577C797.922 35.4114 797.299 36.4664 796.707 37.5533C796.132 38.6402 795.437 39.7991 794.621 41.0299L790.617 47H785.678ZM812.052 47L822.626 31.799L822.602 35.0598L812.604 20.5301H817.591L820.947 25.685C821.763 26.9478 822.49 28.1466 823.129 29.2815C823.769 30.4004 824.424 31.4953 825.095 32.5662H822.89C823.577 31.4953 824.216 30.4004 824.808 29.2815C825.399 28.1466 826.11 26.9478 826.942 25.685L830.37 20.5301H835.261L825.215 35.2036V32.0387L835.693 47H830.73L826.774 41.0299C825.974 39.7991 825.263 38.6402 824.64 37.5533C824.016 36.4664 823.377 35.4114 822.722 34.3884H824.951C824.296 35.4114 823.673 36.4664 823.081 37.5533C822.506 38.6402 821.811 39.7991 820.995 41.0299L816.991 47H812.052Z" fill="#585858"/>
<path d="M534.367 49L544.94 33.799L544.916 37.0598L534.918 22.5301H539.905L543.262 27.685C544.077 28.9478 544.804 30.1466 545.444 31.2815C546.083 32.4004 546.738 33.4953 547.41 34.5662H545.204C545.891 33.4953 546.531 32.4004 547.122 31.2815C547.714 30.1466 548.425 28.9478 549.256 27.685L552.685 22.5301H557.576L547.53 37.2036V34.0387L558.007 49H553.044L549.088 43.0299C548.289 41.7991 547.578 40.6402 546.954 39.5533C546.331 38.4664 545.691 37.4114 545.036 36.3884H547.266C546.611 37.4114 545.987 38.4664 545.396 39.5533C544.82 40.6402 544.125 41.7991 543.31 43.0299L539.306 49H534.367ZM560.741 49L571.314 33.799L571.29 37.0598L561.292 22.5301H566.279L569.636 27.685C570.451 28.9478 571.178 30.1466 571.818 31.2815C572.457 32.4004 573.112 33.4953 573.784 34.5662H571.578C572.265 33.4953 572.905 32.4004 573.496 31.2815C574.088 30.1466 574.799 28.9478 575.63 27.685L579.059 22.5301H583.95L573.904 37.2036V34.0387L584.381 49H579.418L575.462 43.0299C574.663 41.7991 573.952 40.6402 573.328 39.5533C572.705 38.4664 572.066 37.4114 571.41 36.3884H573.64C572.985 37.4114 572.361 38.4664 571.77 39.5533C571.194 40.6402 570.499 41.7991 569.684 43.0299L565.68 49H560.741ZM587.115 49L597.688 33.799L597.664 37.0598L587.666 22.5301H592.653L596.01 27.685C596.825 28.9478 597.552 30.1466 598.192 31.2815C598.831 32.4004 599.486 33.4953 600.158 34.5662H597.952C598.639 33.4953 599.279 32.4004 599.87 31.2815C600.462 30.1466 601.173 28.9478 602.004 27.685L605.433 22.5301H610.324L600.278 37.2036V34.0387L610.755 49H605.792L601.836 43.0299C601.037 41.7991 600.326 40.6402 599.702 39.5533C599.079 38.4664 598.44 37.4114 597.784 36.3884H600.014C599.359 37.4114 598.735 38.4664 598.144 39.5533C597.568 40.6402 596.873 41.7991 596.058 43.0299L592.054 49H587.115ZM613.489 49L624.062 33.799L624.038 37.0598L614.04 22.5301H619.027L622.384 27.685C623.199 28.9478 623.926 30.1466 624.566 31.2815C625.205 32.4004 625.861 33.4953 626.532 34.5662H624.326C625.013 33.4953 625.653 32.4004 626.244 31.2815C626.836 30.1466 627.547 28.9478 628.378 27.685L631.807 22.5301H636.698L626.652 37.2036V34.0387L637.129 49H632.166L628.21 43.0299C627.411 41.7991 626.7 40.6402 626.076 39.5533C625.453 38.4664 624.814 37.4114 624.158 36.3884H626.388C625.733 37.4114 625.109 38.4664 624.518 39.5533C623.942 40.6402 623.247 41.7991 622.432 43.0299L618.428 49H613.489ZM639.863 49L650.436 33.799L650.412 37.0598L640.414 22.5301H645.401L648.758 27.685C649.573 28.9478 650.3 30.1466 650.94 31.2815C651.579 32.4004 652.235 33.4953 652.906 34.5662H650.7C651.387 33.4953 652.027 32.4004 652.618 31.2815C653.21 30.1466 653.921 28.9478 654.752 27.685L658.181 22.5301H663.072L653.026 37.2036V34.0387L663.503 49H658.54L654.584 43.0299C653.785 41.7991 653.074 40.6402 652.45 39.5533C651.827 38.4664 651.188 37.4114 650.532 36.3884H652.762C652.107 37.4114 651.483 38.4664 650.892 39.5533C650.316 40.6402 649.621 41.7991 648.806 43.0299L644.802 49H639.863ZM666.237 49L676.81 33.799L676.786 37.0598L666.788 22.5301H671.775L675.132 27.685C675.947 28.9478 676.674 30.1466 677.314 31.2815C677.953 32.4004 678.609 33.4953 679.28 34.5662H677.074C677.761 33.4953 678.401 32.4004 678.992 31.2815C679.584 30.1466 680.295 28.9478 681.126 27.685L684.555 22.5301H689.446L679.4 37.2036V34.0387L689.877 49H684.914L680.958 43.0299C680.159 41.7991 679.448 40.6402 678.824 39.5533C678.201 38.4664 677.562 37.4114 676.906 36.3884H679.136C678.481 37.4114 677.857 38.4664 677.266 39.5533C676.69 40.6402 675.995 41.7991 675.18 43.0299L671.176 49H666.237ZM692.611 49L703.184 33.799L703.16 37.0598L693.162 22.5301H698.149L701.506 27.685C702.321 28.9478 703.048 30.1466 703.688 31.2815C704.327 32.4004 704.983 33.4953 705.654 34.5662H703.448C704.135 33.4953 704.775 32.4004 705.366 31.2815C705.958 30.1466 706.669 28.9478 707.5 27.685L710.929 22.5301H715.82L705.774 37.2036V34.0387L716.251 49H711.288L707.332 43.0299C706.533 41.7991 705.822 40.6402 705.198 39.5533C704.575 38.4664 703.936 37.4114 703.28 36.3884H705.51C704.855 37.4114 704.231 38.4664 703.64 39.5533C703.064 40.6402 702.369 41.7991 701.554 43.0299L697.55 49H692.611ZM718.985 49L729.558 33.799L729.534 37.0598L719.536 22.5301H724.523L727.88 27.685C728.695 28.9478 729.422 30.1466 730.062 31.2815C730.701 32.4004 731.357 33.4953 732.028 34.5662H729.822C730.509 33.4953 731.149 32.4004 731.74 31.2815C732.332 30.1466 733.043 28.9478 733.874 27.685L737.303 22.5301H742.194L732.148 37.2036V34.0387L742.625 49H737.662L733.706 43.0299C732.907 41.7991 732.196 40.6402 731.572 39.5533C730.949 38.4664 730.31 37.4114 729.654 36.3884H731.884C731.229 37.4114 730.605 38.4664 730.014 39.5533C729.438 40.6402 728.743 41.7991 727.928 43.0299L723.924 49H718.985Z" fill="#585858"/>
<path d="M530.367 89.5566L540.94 74.3556L540.916 77.6164L530.918 63.0867H535.905L539.262 68.2416C540.077 69.5044 540.804 70.7032 541.444 71.8381C542.083 72.957 542.738 74.0519 543.41 75.1229H541.204C541.891 74.0519 542.531 72.957 543.122 71.8381C543.714 70.7032 544.425 69.5044 545.256 68.2416L548.685 63.0867H553.576L543.53 77.7603V74.5954L554.007 89.5566H549.044L545.088 83.5865C544.289 82.3557 543.578 81.1969 542.954 80.1099C542.331 79.023 541.691 77.9681 541.036 76.9451H543.266C542.611 77.9681 541.987 79.023 541.396 80.1099C540.82 81.1969 540.125 82.3557 539.31 83.5865L535.306 89.5566H530.367ZM556.741 89.5566L567.314 74.3556L567.29 77.6164L557.292 63.0867H562.279L565.636 68.2416C566.451 69.5044 567.178 70.7032 567.818 71.8381C568.457 72.957 569.112 74.0519 569.784 75.1229H567.578C568.265 74.0519 568.905 72.957 569.496 71.8381C570.088 70.7032 570.799 69.5044 571.63 68.2416L575.059 63.0867H579.95L569.904 77.7603V74.5954L580.381 89.5566H575.418L571.462 83.5865C570.663 82.3557 569.952 81.1969 569.328 80.1099C568.705 79.023 568.066 77.9681 567.41 76.9451H569.64C568.985 77.9681 568.361 79.023 567.77 80.1099C567.194 81.1969 566.499 82.3557 565.684 83.5865L561.68 89.5566H556.741ZM583.115 89.5566L593.688 74.3556L593.664 77.6164L583.666 63.0867H588.653L592.01 68.2416C592.825 69.5044 593.552 70.7032 594.192 71.8381C594.831 72.957 595.486 74.0519 596.158 75.1229H593.952C594.639 74.0519 595.279 72.957 595.87 71.8381C596.462 70.7032 597.173 69.5044 598.004 68.2416L601.433 63.0867H606.324L596.278 77.7603V74.5954L606.755 89.5566H601.792L597.836 83.5865C597.037 82.3557 596.326 81.1969 595.702 80.1099C595.079 79.023 594.44 77.9681 593.784 76.9451H596.014C595.359 77.9681 594.735 79.023 594.144 80.1099C593.568 81.1969 592.873 82.3557 592.058 83.5865L588.054 89.5566H583.115ZM609.489 89.5566L620.062 74.3556L620.038 77.6164L610.04 63.0867H615.027L618.384 68.2416C619.199 69.5044 619.926 70.7032 620.566 71.8381C621.205 72.957 621.861 74.0519 622.532 75.1229H620.326C621.013 74.0519 621.653 72.957 622.244 71.8381C622.836 70.7032 623.547 69.5044 624.378 68.2416L627.807 63.0867H632.698L622.652 77.7603V74.5954L633.129 89.5566H628.166L624.21 83.5865C623.411 82.3557 622.7 81.1969 622.076 80.1099C621.453 79.023 620.814 77.9681 620.158 76.9451H622.388C621.733 77.9681 621.109 79.023 620.518 80.1099C619.942 81.1969 619.247 82.3557 618.432 83.5865L614.428 89.5566H609.489ZM635.863 89.5566L646.436 74.3556L646.412 77.6164L636.414 63.0867H641.401L644.758 68.2416C645.573 69.5044 646.3 70.7032 646.94 71.8381C647.579 72.957 648.235 74.0519 648.906 75.1229H646.7C647.387 74.0519 648.027 72.957 648.618 71.8381C649.21 70.7032 649.921 69.5044 650.752 68.2416L654.181 63.0867H659.072L649.026 77.7603V74.5954L659.503 89.5566H654.54L650.584 83.5865C649.785 82.3557 649.074 81.1969 648.45 80.1099C647.827 79.023 647.188 77.9681 646.532 76.9451H648.762C648.107 77.9681 647.483 79.023 646.892 80.1099C646.316 81.1969 645.621 82.3557 644.806 83.5865L640.802 89.5566H635.863ZM662.237 89.5566L672.81 74.3556L672.786 77.6164L662.788 63.0867H667.775L671.132 68.2416C671.947 69.5044 672.674 70.7032 673.314 71.8381C673.953 72.957 674.609 74.0519 675.28 75.1229H673.074C673.761 74.0519 674.401 72.957 674.992 71.8381C675.584 70.7032 676.295 69.5044 677.126 68.2416L680.555 63.0867H685.446L675.4 77.7603V74.5954L685.877 89.5566H680.914L676.958 83.5865C676.159 82.3557 675.448 81.1969 674.824 80.1099C674.201 79.023 673.562 77.9681 672.906 76.9451H675.136C674.481 77.9681 673.857 79.023 673.266 80.1099C672.69 81.1969 671.995 82.3557 671.18 83.5865L667.176 89.5566H662.237ZM688.611 89.5566L699.184 74.3556L699.16 77.6164L689.162 63.0867H694.149L697.506 68.2416C698.321 69.5044 699.048 70.7032 699.688 71.8381C700.327 72.957 700.983 74.0519 701.654 75.1229H699.448C700.135 74.0519 700.775 72.957 701.366 71.8381C701.958 70.7032 702.669 69.5044 703.5 68.2416L706.929 63.0867H711.82L701.774 77.7603V74.5954L712.251 89.5566H707.288L703.332 83.5865C702.533 82.3557 701.822 81.1969 701.198 80.1099C700.575 79.023 699.936 77.9681 699.28 76.9451H701.51C700.855 77.9681 700.231 79.023 699.64 80.1099C699.064 81.1969 698.369 82.3557 697.554 83.5865L693.55 89.5566H688.611ZM714.985 89.5566L725.558 74.3556L725.534 77.6164L715.536 63.0867H720.523L723.88 68.2416C724.695 69.5044 725.422 70.7032 726.062 71.8381C726.701 72.957 727.357 74.0519 728.028 75.1229H725.822C726.509 74.0519 727.149 72.957 727.74 71.8381C728.332 70.7032 729.043 69.5044 729.874 68.2416L733.303 63.0867H738.194L728.148 77.7603V74.5954L738.625 89.5566H733.662L729.706 83.5865C728.907 82.3557 728.196 81.1969 727.572 80.1099C726.949 79.023 726.31 77.9681 725.654 76.9451H727.884C727.229 77.9681 726.605 79.023 726.014 80.1099C725.438 81.1969 724.743 82.3557 723.928 83.5865L719.924 89.5566H714.985Z" fill="#585858"/>
<path d="M432.439 179.58L443.013 164.379L442.989 167.64L432.99 153.11H437.977L441.334 158.265C442.149 159.528 442.877 160.727 443.516 161.862C444.155 162.98 444.811 164.075 445.482 165.146H443.276C443.964 164.075 444.603 162.98 445.194 161.862C445.786 160.727 446.497 159.528 447.328 158.265L450.757 153.11H455.648L445.602 167.784V164.619L456.08 179.58H451.117L447.16 173.61C446.361 172.379 445.65 171.22 445.027 170.133C444.403 169.046 443.764 167.991 443.108 166.969H445.338C444.683 167.991 444.059 169.046 443.468 170.133C442.893 171.22 442.197 172.379 441.382 173.61L437.378 179.58H432.439ZM458.813 179.58L469.387 164.379L469.363 167.64L459.364 153.11H464.351L467.708 158.265C468.523 159.528 469.251 160.727 469.89 161.862C470.529 162.98 471.185 164.075 471.856 165.146H469.65C470.338 164.075 470.977 162.98 471.568 161.862C472.16 160.727 472.871 159.528 473.702 158.265L477.131 153.11H482.022L471.976 167.784V164.619L482.454 179.58H477.491L473.534 173.61C472.735 172.379 472.024 171.22 471.401 170.133C470.777 169.046 470.138 167.991 469.482 166.969H471.712C471.057 167.991 470.433 169.046 469.842 170.133C469.267 171.22 468.571 172.379 467.756 173.61L463.752 179.58H458.813ZM485.187 179.58L495.761 164.379L495.737 167.64L485.738 153.11H490.725L494.082 158.265C494.897 159.528 495.625 160.727 496.264 161.862C496.903 162.98 497.559 164.075 498.23 165.146H496.024C496.712 164.075 497.351 162.98 497.942 161.862C498.534 160.727 499.245 159.528 500.076 158.265L503.505 153.11H508.396L498.35 167.784V164.619L508.828 179.58H503.865L499.908 173.61C499.109 172.379 498.398 171.22 497.775 170.133C497.151 169.046 496.512 167.991 495.856 166.969H498.086C497.431 167.991 496.807 169.046 496.216 170.133C495.641 171.22 494.945 172.379 494.13 173.61L490.126 179.58H485.187ZM511.561 179.58L522.135 164.379L522.111 167.64L512.112 153.11H517.1L520.456 158.265C521.271 159.528 521.999 160.727 522.638 161.862C523.277 162.98 523.933 164.075 524.604 165.146H522.398C523.086 164.075 523.725 162.98 524.316 161.862C524.908 160.727 525.619 159.528 526.45 158.265L529.879 153.11H534.77L524.724 167.784V164.619L535.202 179.58H530.239L526.282 173.61C525.483 172.379 524.772 171.22 524.149 170.133C523.525 169.046 522.886 167.991 522.23 166.969H524.46C523.805 167.991 523.182 169.046 522.59 170.133C522.015 171.22 521.319 172.379 520.504 173.61L516.5 179.58H511.561ZM537.935 179.58L548.509 164.379L548.485 167.64L538.486 153.11H543.474L546.83 158.265C547.645 159.528 548.373 160.727 549.012 161.862C549.651 162.98 550.307 164.075 550.978 165.146H548.772C549.46 164.075 550.099 162.98 550.69 161.862C551.282 160.727 551.993 159.528 552.824 158.265L556.253 153.11H561.144L551.098 167.784V164.619L561.576 179.58H556.613L552.656 173.61C551.857 172.379 551.146 171.22 550.523 170.133C549.899 169.046 549.26 167.991 548.604 166.969H550.834C550.179 167.991 549.556 169.046 548.964 170.133C548.389 171.22 547.693 172.379 546.878 173.61L542.874 179.58H537.935ZM564.309 179.58L574.883 164.379L574.859 167.64L564.86 153.11H569.848L573.204 158.265C574.019 159.528 574.747 160.727 575.386 161.862C576.025 162.98 576.681 164.075 577.352 165.146H575.146C575.834 164.075 576.473 162.98 577.064 161.862C577.656 160.727 578.367 159.528 579.198 158.265L582.627 153.11H587.518L577.472 167.784V164.619L587.95 179.58H582.987L579.03 173.61C578.231 172.379 577.52 171.22 576.897 170.133C576.273 169.046 575.634 167.991 574.978 166.969H577.208C576.553 167.991 575.93 169.046 575.338 170.133C574.763 171.22 574.067 172.379 573.252 173.61L569.248 179.58H564.309ZM590.683 179.58L601.257 164.379L601.233 167.64L591.234 153.11H596.222L599.578 158.265C600.393 159.528 601.121 160.727 601.76 161.862C602.399 162.98 603.055 164.075 603.726 165.146H601.52C602.208 164.075 602.847 162.98 603.438 161.862C604.03 160.727 604.741 159.528 605.572 158.265L609.001 153.11H613.892L603.846 167.784V164.619L614.324 179.58H609.361L605.404 173.61C604.605 172.379 603.894 171.22 603.271 170.133C602.647 169.046 602.008 167.991 601.352 166.969H603.582C602.927 167.991 602.304 169.046 601.712 170.133C601.137 171.22 600.441 172.379 599.626 173.61L595.622 179.58H590.683ZM617.057 179.58L627.631 164.379L627.607 167.64L617.608 153.11H622.596L625.952 158.265C626.767 159.528 627.495 160.727 628.134 161.862C628.773 162.98 629.429 164.075 630.1 165.146H627.894C628.582 164.075 629.221 162.98 629.812 161.862C630.404 160.727 631.115 159.528 631.946 158.265L635.375 153.11H640.266L630.22 167.784V164.619L640.698 179.58H635.735L631.779 173.61C630.979 172.379 630.268 171.22 629.645 170.133C629.021 169.046 628.382 167.991 627.727 166.969H629.956C629.301 167.991 628.678 169.046 628.086 170.133C627.511 171.22 626.815 172.379 626 173.61L621.996 179.58H617.057Z" fill="#585858"/>
<path d="M5.36665 541.073L15.9402 525.872L15.9163 529.133L5.91811 514.603H10.9052L14.2619 519.758C15.0771 521.021 15.8044 522.219 16.4437 523.354C17.0831 524.473 17.7385 525.568 18.4098 526.639H16.204C16.8913 525.568 17.5307 524.473 18.1221 523.354C18.7135 522.219 19.4248 521.021 20.256 519.758L23.6846 514.603H28.5758L18.5297 529.276V526.111L29.0074 541.073H24.0443L20.0881 535.103C19.2889 533.872 18.5776 532.713 17.9543 531.626C17.3309 530.539 16.6915 529.484 16.0361 528.461H18.2659C17.6106 529.484 16.9872 530.539 16.3958 531.626C15.8204 532.713 15.125 533.872 14.3098 535.103L10.3058 541.073H5.36665ZM31.7407 541.073L42.3142 525.872L42.2903 529.133L32.2921 514.603H37.2792L40.6359 519.758C41.4511 521.021 42.1784 522.219 42.8178 523.354C43.4571 524.473 44.1125 525.568 44.7838 526.639H42.578C43.2653 525.568 43.9047 524.473 44.4961 523.354C45.0875 522.219 45.7988 521.021 46.63 519.758L50.0586 514.603H54.9498L44.9037 529.276V526.111L55.3814 541.073H50.4183L46.4622 535.103C45.6629 533.872 44.9517 532.713 44.3283 531.626C43.7049 530.539 43.0655 529.484 42.4102 528.461H44.64C43.9846 529.484 43.3612 530.539 42.7698 531.626C42.1944 532.713 41.4991 533.872 40.6839 535.103L36.6798 541.073H31.7407ZM58.1147 541.073L68.6883 525.872L68.6643 529.133L58.6661 514.603H63.6532L67.0099 519.758C67.8251 521.021 68.5524 522.219 69.1918 523.354C69.8311 524.473 70.4865 525.568 71.1578 526.639H68.952C69.6393 525.568 70.2787 524.473 70.8701 523.354C71.4615 522.219 72.1728 521.021 73.004 519.758L76.4326 514.603H81.3238L71.2777 529.276V526.111L81.7554 541.073H76.7923L72.8362 535.103C72.037 533.872 71.3257 532.713 70.7023 531.626C70.0789 530.539 69.4395 529.484 68.7842 528.461H71.014C70.3586 529.484 69.7352 530.539 69.1438 531.626C68.5684 532.713 67.8731 533.872 67.0579 535.103L63.0538 541.073H58.1147ZM84.4887 541.073L95.0623 525.872L95.0383 529.133L85.0401 514.603H90.0272L93.3839 519.758C94.1991 521.021 94.9264 522.219 95.5658 523.354C96.2051 524.473 96.8605 525.568 97.5318 526.639H95.326C96.0133 525.568 96.6527 524.473 97.2441 523.354C97.8355 522.219 98.5468 521.021 99.378 519.758L102.807 514.603H107.698L97.6517 529.276V526.111L108.129 541.073H103.166L99.2102 535.103C98.411 533.872 97.6997 532.713 97.0763 531.626C96.4529 530.539 95.8135 529.484 95.1582 528.461H97.388C96.7326 529.484 96.1092 530.539 95.5178 531.626C94.9424 532.713 94.2471 533.872 93.4319 535.103L89.4278 541.073H84.4887ZM110.863 541.073L121.436 525.872L121.412 529.133L111.414 514.603H116.401L119.758 519.758C120.573 521.021 121.3 522.219 121.94 523.354C122.579 524.473 123.235 525.568 123.906 526.639H121.7C122.387 525.568 123.027 524.473 123.618 523.354C124.21 522.219 124.921 521.021 125.752 519.758L129.181 514.603H134.072L124.026 529.276V526.111L134.503 541.073H129.54L125.584 535.103C124.785 533.872 124.074 532.713 123.45 531.626C122.827 530.539 122.188 529.484 121.532 528.461H123.762C123.107 529.484 122.483 530.539 121.892 531.626C121.316 532.713 120.621 533.872 119.806 535.103L115.802 541.073H110.863ZM137.237 541.073L147.81 525.872L147.786 529.133L137.788 514.603H142.775L146.132 519.758C146.947 521.021 147.674 522.219 148.314 523.354C148.953 524.473 149.609 525.568 150.28 526.639H148.074C148.761 525.568 149.401 524.473 149.992 523.354C150.584 522.219 151.295 521.021 152.126 519.758L155.555 514.603H160.446L150.4 529.276V526.111L160.877 541.073H155.914L151.958 535.103C151.159 533.872 150.448 532.713 149.824 531.626C149.201 530.539 148.562 529.484 147.906 528.461H150.136C149.481 529.484 148.857 530.539 148.266 531.626C147.69 532.713 146.995 533.872 146.18 535.103L142.176 541.073H137.237ZM163.611 541.073L174.184 525.872L174.16 529.133L164.162 514.603H169.149L172.506 519.758C173.321 521.021 174.048 522.219 174.688 523.354C175.327 524.473 175.983 525.568 176.654 526.639H174.448C175.135 525.568 175.775 524.473 176.366 523.354C176.958 522.219 177.669 521.021 178.5 519.758L181.929 514.603H186.82L176.774 529.276V526.111L187.251 541.073H182.288L178.332 535.103C177.533 533.872 176.822 532.713 176.198 531.626C175.575 530.539 174.936 529.484 174.28 528.461H176.51C175.855 529.484 175.231 530.539 174.64 531.626C174.064 532.713 173.369 533.872 172.554 535.103L168.55 541.073H163.611ZM189.985 541.073L200.558 525.872L200.534 529.133L190.536 514.603H195.523L198.88 519.758C199.695 521.021 200.422 522.219 201.062 523.354C201.701 524.473 202.357 525.568 203.028 526.639H200.822C201.509 525.568 202.149 524.473 202.74 523.354C203.332 522.219 204.043 521.021 204.874 519.758L208.303 514.603H213.194L203.148 529.276V526.111L213.625 541.073H208.662L204.706 535.103C203.907 533.872 203.196 532.713 202.572 531.626C201.949 530.539 201.31 529.484 200.654 528.461H202.884C202.229 529.484 201.605 530.539 201.014 531.626C200.438 532.713 199.743 533.872 198.928 535.103L194.924 541.073H189.985Z" fill="#585858"/>
<path d="M654.865 179.58L665.438 164.379L665.414 167.64L655.416 153.11H660.403L663.76 158.265C664.575 159.528 665.302 160.727 665.942 161.862C666.581 162.98 667.237 164.075 667.908 165.146H665.702C666.389 164.075 667.029 162.98 667.62 161.862C668.212 160.727 668.923 159.528 669.754 158.265L673.183 153.11H678.074L668.028 167.784V164.619L678.505 179.58H673.542L669.586 173.61C668.787 172.379 668.076 171.22 667.452 170.133C666.829 169.046 666.19 167.991 665.534 166.969H667.764C667.109 167.991 666.485 169.046 665.894 170.133C665.318 171.22 664.623 172.379 663.808 173.61L659.804 179.58H654.865ZM681.239 179.58L691.812 164.379L691.788 167.64L681.79 153.11H686.777L690.134 158.265C690.949 159.528 691.676 160.727 692.316 161.862C692.955 162.98 693.611 164.075 694.282 165.146H692.076C692.763 164.075 693.403 162.98 693.994 161.862C694.586 160.727 695.297 159.528 696.128 158.265L699.557 153.11H704.448L694.402 167.784V164.619L704.879 179.58H699.916L695.96 173.61C695.161 172.379 694.45 171.22 693.826 170.133C693.203 169.046 692.564 167.991 691.908 166.969H694.138C693.483 167.991 692.859 169.046 692.268 170.133C691.692 171.22 690.997 172.379 690.182 173.61L686.178 179.58H681.239ZM707.613 179.58L718.186 164.379L718.162 167.64L708.164 153.11H713.151L716.508 158.265C717.323 159.528 718.05 160.727 718.69 161.862C719.329 162.98 719.985 164.075 720.656 165.146H718.45C719.137 164.075 719.777 162.98 720.368 161.862C720.96 160.727 721.671 159.528 722.502 158.265L725.931 153.11H730.822L720.776 167.784V164.619L731.253 179.58H726.29L722.334 173.61C721.535 172.379 720.824 171.22 720.2 170.133C719.577 169.046 718.938 167.991 718.282 166.969H720.512C719.857 167.991 719.233 169.046 718.642 170.133C718.066 171.22 717.371 172.379 716.556 173.61L712.552 179.58H707.613ZM733.987 179.58L744.56 164.379L744.536 167.64L734.538 153.11H739.525L742.882 158.265C743.697 159.528 744.424 160.727 745.064 161.862C745.703 162.98 746.359 164.075 747.03 165.146H744.824C745.511 164.075 746.151 162.98 746.742 161.862C747.334 160.727 748.045 159.528 748.876 158.265L752.305 153.11H757.196L747.15 167.784V164.619L757.627 179.58H752.664L748.708 173.61C747.909 172.379 747.198 171.22 746.574 170.133C745.951 169.046 745.312 167.991 744.656 166.969H746.886C746.231 167.991 745.607 169.046 745.016 170.133C744.44 171.22 743.745 172.379 742.93 173.61L738.926 179.58H733.987ZM760.361 179.58L770.934 164.379L770.91 167.64L760.912 153.11H765.899L769.256 158.265C770.071 159.528 770.798 160.727 771.438 161.862C772.077 162.98 772.733 164.075 773.404 165.146H771.198C771.885 164.075 772.525 162.98 773.116 161.862C773.708 160.727 774.419 159.528 775.25 158.265L778.679 153.11H783.57L773.524 167.784V164.619L784.001 179.58H779.038L775.082 173.61C774.283 172.379 773.572 171.22 772.948 170.133C772.325 169.046 771.686 167.991 771.03 166.969H773.26C772.605 167.991 771.981 169.046 771.39 170.133C770.814 171.22 770.119 172.379 769.304 173.61L765.3 179.58H760.361ZM786.735 179.58L797.308 164.379L797.284 167.64L787.286 153.11H792.273L795.63 158.265C796.445 159.528 797.172 160.727 797.812 161.862C798.451 162.98 799.107 164.075 799.778 165.146H797.572C798.259 164.075 798.899 162.98 799.49 161.862C800.082 160.727 800.793 159.528 801.624 158.265L805.053 153.11H809.944L799.898 167.784V164.619L810.375 179.58H805.412L801.456 173.61C800.657 172.379 799.946 171.22 799.322 170.133C798.699 169.046 798.06 167.991 797.404 166.969H799.634C798.979 167.991 798.355 169.046 797.764 170.133C797.188 171.22 796.493 172.379 795.678 173.61L791.674 179.58H786.735ZM813.109 179.58L823.682 164.379L823.658 167.64L813.66 153.11H818.647L822.004 158.265C822.819 159.528 823.546 160.727 824.186 161.862C824.825 162.98 825.481 164.075 826.152 165.146H823.946C824.633 164.075 825.273 162.98 825.864 161.862C826.456 160.727 827.167 159.528 827.998 158.265L831.427 153.11H836.318L826.272 167.784V164.619L836.749 179.58H831.786L827.83 173.61C827.031 172.379 826.32 171.22 825.696 170.133C825.073 169.046 824.434 167.991 823.778 166.969H826.008C825.353 167.991 824.729 169.046 824.138 170.133C823.562 171.22 822.867 172.379 822.052 173.61L818.048 179.58H813.109Z" fill="#585858"/>
<path d="M291.367 541.073L301.94 525.872L301.916 529.133L291.918 514.603H296.905L300.262 519.758C301.077 521.021 301.804 522.219 302.444 523.354C303.083 524.473 303.738 525.568 304.41 526.639H302.204C302.891 525.568 303.531 524.473 304.122 523.354C304.714 522.219 305.425 521.021 306.256 519.758L309.685 514.603H314.576L304.53 529.276V526.111L315.007 541.073H310.044L306.088 535.103C305.289 533.872 304.578 532.713 303.954 531.626C303.331 530.539 302.691 529.484 302.036 528.461H304.266C303.611 529.484 302.987 530.539 302.396 531.626C301.82 532.713 301.125 533.872 300.31 535.103L296.306 541.073H291.367ZM317.741 541.073L328.314 525.872L328.29 529.133L318.292 514.603H323.279L326.636 519.758C327.451 521.021 328.178 522.219 328.818 523.354C329.457 524.473 330.112 525.568 330.784 526.639H328.578C329.265 525.568 329.905 524.473 330.496 523.354C331.088 522.219 331.799 521.021 332.63 519.758L336.059 514.603H340.95L330.904 529.276V526.111L341.381 541.073H336.418L332.462 535.103C331.663 533.872 330.952 532.713 330.328 531.626C329.705 530.539 329.066 529.484 328.41 528.461H330.64C329.985 529.484 329.361 530.539 328.77 531.626C328.194 532.713 327.499 533.872 326.684 535.103L322.68 541.073H317.741ZM344.115 541.073L354.688 525.872L354.664 529.133L344.666 514.603H349.653L353.01 519.758C353.825 521.021 354.552 522.219 355.192 523.354C355.831 524.473 356.486 525.568 357.158 526.639H354.952C355.639 525.568 356.279 524.473 356.87 523.354C357.462 522.219 358.173 521.021 359.004 519.758L362.433 514.603H367.324L357.278 529.276V526.111L367.755 541.073H362.792L358.836 535.103C358.037 533.872 357.326 532.713 356.702 531.626C356.079 530.539 355.44 529.484 354.784 528.461H357.014C356.359 529.484 355.735 530.539 355.144 531.626C354.568 532.713 353.873 533.872 353.058 535.103L349.054 541.073H344.115ZM370.489 541.073L381.062 525.872L381.038 529.133L371.04 514.603H376.027L379.384 519.758C380.199 521.021 380.926 522.219 381.566 523.354C382.205 524.473 382.861 525.568 383.532 526.639H381.326C382.013 525.568 382.653 524.473 383.244 523.354C383.836 522.219 384.547 521.021 385.378 519.758L388.807 514.603H393.698L383.652 529.276V526.111L394.129 541.073H389.166L385.21 535.103C384.411 533.872 383.7 532.713 383.076 531.626C382.453 530.539 381.814 529.484 381.158 528.461H383.388C382.733 529.484 382.109 530.539 381.518 531.626C380.942 532.713 380.247 533.872 379.432 535.103L375.428 541.073H370.489ZM396.863 541.073L407.436 525.872L407.412 529.133L397.414 514.603H402.401L405.758 519.758C406.573 521.021 407.3 522.219 407.94 523.354C408.579 524.473 409.235 525.568 409.906 526.639H407.7C408.387 525.568 409.027 524.473 409.618 523.354C410.21 522.219 410.921 521.021 411.752 519.758L415.181 514.603H420.072L410.026 529.276V526.111L420.503 541.073H415.54L411.584 535.103C410.785 533.872 410.074 532.713 409.45 531.626C408.827 530.539 408.188 529.484 407.532 528.461H409.762C409.107 529.484 408.483 530.539 407.892 531.626C407.316 532.713 406.621 533.872 405.806 535.103L401.802 541.073H396.863ZM423.237 541.073L433.81 525.872L433.786 529.133L423.788 514.603H428.775L432.132 519.758C432.947 521.021 433.674 522.219 434.314 523.354C434.953 524.473 435.609 525.568 436.28 526.639H434.074C434.761 525.568 435.401 524.473 435.992 523.354C436.584 522.219 437.295 521.021 438.126 519.758L441.555 514.603H446.446L436.4 529.276V526.111L446.877 541.073H441.914L437.958 535.103C437.159 533.872 436.448 532.713 435.824 531.626C435.201 530.539 434.562 529.484 433.906 528.461H436.136C435.481 529.484 434.857 530.539 434.266 531.626C433.69 532.713 432.995 533.872 432.18 535.103L428.176 541.073H423.237ZM449.611 541.073L460.184 525.872L460.16 529.133L450.162 514.603H455.149L458.506 519.758C459.321 521.021 460.048 522.219 460.688 523.354C461.327 524.473 461.983 525.568 462.654 526.639H460.448C461.135 525.568 461.775 524.473 462.366 523.354C462.958 522.219 463.669 521.021 464.5 519.758L467.929 514.603H472.82L462.774 529.276V526.111L473.251 541.073H468.288L464.332 535.103C463.533 533.872 462.822 532.713 462.198 531.626C461.575 530.539 460.936 529.484 460.28 528.461H462.51C461.855 529.484 461.231 530.539 460.64 531.626C460.064 532.713 459.369 533.872 458.554 535.103L454.55 541.073H449.611ZM475.985 541.073L486.558 525.872L486.534 529.133L476.536 514.603H481.523L484.88 519.758C485.695 521.021 486.422 522.219 487.062 523.354C487.701 524.473 488.357 525.568 489.028 526.639H486.822C487.509 525.568 488.149 524.473 488.74 523.354C489.332 522.219 490.043 521.021 490.874 519.758L494.303 514.603H499.194L489.148 529.276V526.111L499.625 541.073H494.662L490.706 535.103C489.907 533.872 489.196 532.713 488.572 531.626C487.949 530.539 487.31 529.484 486.654 528.461H488.884C488.229 529.484 487.605 530.539 487.014 531.626C486.438 532.713 485.743 533.872 484.928 535.103L480.924 541.073H475.985Z" fill="#585858"/>
<path d="M316.367 179.58L326.94 164.379L326.916 167.64L316.918 153.11H321.905L325.262 158.265C326.077 159.528 326.804 160.727 327.444 161.862C328.083 162.98 328.738 164.075 329.41 165.146H327.204C327.891 164.075 328.531 162.98 329.122 161.862C329.714 160.727 330.425 159.528 331.256 158.265L334.685 153.11H339.576L329.53 167.784V164.619L340.007 179.58H335.044L331.088 173.61C330.289 172.379 329.578 171.22 328.954 170.133C328.331 169.046 327.691 167.991 327.036 166.969H329.266C328.611 167.991 327.987 169.046 327.396 170.133C326.82 171.22 326.125 172.379 325.31 173.61L321.306 179.58H316.367ZM342.741 179.58L353.314 164.379L353.29 167.64L343.292 153.11H348.279L351.636 158.265C352.451 159.528 353.178 160.727 353.818 161.862C354.457 162.98 355.112 164.075 355.784 165.146H353.578C354.265 164.075 354.905 162.98 355.496 161.862C356.088 160.727 356.799 159.528 357.63 158.265L361.059 153.11H365.95L355.904 167.784V164.619L366.381 179.58H361.418L357.462 173.61C356.663 172.379 355.952 171.22 355.328 170.133C354.705 169.046 354.066 167.991 353.41 166.969H355.64C354.985 167.991 354.361 169.046 353.77 170.133C353.194 171.22 352.499 172.379 351.684 173.61L347.68 179.58H342.741ZM369.115 179.58L379.688 164.379L379.664 167.64L369.666 153.11H374.653L378.01 158.265C378.825 159.528 379.552 160.727 380.192 161.862C380.831 162.98 381.486 164.075 382.158 165.146H379.952C380.639 164.075 381.279 162.98 381.87 161.862C382.462 160.727 383.173 159.528 384.004 158.265L387.433 153.11H392.324L382.278 167.784V164.619L392.755 179.58H387.792L383.836 173.61C383.037 172.379 382.326 171.22 381.702 170.133C381.079 169.046 380.44 167.991 379.784 166.969H382.014C381.359 167.991 380.735 169.046 380.144 170.133C379.568 171.22 378.873 172.379 378.058 173.61L374.054 179.58H369.115ZM395.489 179.58L406.062 164.379L406.038 167.64L396.04 153.11H401.027L404.384 158.265C405.199 159.528 405.926 160.727 406.566 161.862C407.205 162.98 407.861 164.075 408.532 165.146H406.326C407.013 164.075 407.653 162.98 408.244 161.862C408.836 160.727 409.547 159.528 410.378 158.265L413.807 153.11H418.698L408.652 167.784V164.619L419.129 179.58H414.166L410.21 173.61C409.411 172.379 408.7 171.22 408.076 170.133C407.453 169.046 406.814 167.991 406.158 166.969H408.388C407.733 167.991 407.109 169.046 406.518 170.133C405.942 171.22 405.247 172.379 404.432 173.61L400.428 179.58H395.489Z" fill="#585858"/>
<path d="M316.775 215.262L327.348 200.061L327.324 203.322L317.326 188.792H322.313L325.67 193.947C326.485 195.21 327.213 196.409 327.852 197.544C328.491 198.663 329.147 199.757 329.818 200.828H327.612C328.3 199.757 328.939 198.663 329.53 197.544C330.122 196.409 330.833 195.21 331.664 193.947L335.093 188.792H339.984L329.938 203.466V200.301L340.416 215.262H335.452L331.496 209.292C330.697 208.061 329.986 206.902 329.362 205.816C328.739 204.729 328.1 203.674 327.444 202.651H329.674C329.019 203.674 328.395 204.729 327.804 205.816C327.229 206.902 326.533 208.061 325.718 209.292L321.714 215.262H316.775Z" fill="#585858"/>
<path d="M316.775 268.262L327.348 253.061L327.324 256.322L317.326 241.792H322.313L325.67 246.947C326.485 248.21 327.213 249.409 327.852 250.544C328.491 251.663 329.147 252.757 329.818 253.828H327.612C328.3 252.757 328.939 251.663 329.53 250.544C330.122 249.409 330.833 248.21 331.664 246.947L335.093 241.792H339.984L329.938 256.466V253.301L340.416 268.262H335.452L331.496 262.292C330.697 261.061 329.986 259.902 329.362 258.816C328.739 257.729 328.1 256.674 327.444 255.651H329.674C329.019 256.674 328.395 257.729 327.804 258.816C327.229 259.902 326.533 261.061 325.718 262.292L321.714 268.262H316.775Z" fill="#585858"/>
<path d="M316.775 320.55L327.348 305.349L327.324 308.61L317.326 294.08H322.313L325.67 299.235C326.485 300.498 327.213 301.696 327.852 302.831C328.491 303.95 329.147 305.045 329.818 306.116H327.612C328.3 305.045 328.939 303.95 329.53 302.831C330.122 301.696 330.833 300.498 331.664 299.235L335.093 294.08H339.984L329.938 308.753V305.589L340.416 320.55H335.452L331.496 314.58C330.697 313.349 329.986 312.19 329.362 311.103C328.739 310.016 328.1 308.961 327.444 307.938H329.674C329.019 308.961 328.395 310.016 327.804 311.103C327.229 312.19 326.533 313.349 325.718 314.58L321.714 320.55H316.775Z" fill="#585858"/>
<path d="M341.324 363L351.897 347.799L351.873 351.06L341.875 336.53H346.862L350.219 341.685C351.034 342.948 351.761 344.147 352.401 345.281C353.04 346.4 353.695 347.495 354.367 348.566H352.161C352.848 347.495 353.488 346.4 354.079 345.281C354.671 344.147 355.382 342.948 356.213 341.685L359.642 336.53H364.533L354.487 351.204V348.039L364.964 363H360.001L356.045 357.03C355.246 355.799 354.535 354.64 353.911 353.553C353.288 352.466 352.649 351.411 351.993 350.388H354.223C353.568 351.411 352.944 352.466 352.353 353.553C351.777 354.64 351.082 355.799 350.267 357.03L346.263 363H341.324Z" fill="#585858"/>
<path d="M156.367 363L166.94 347.799L166.916 351.06L156.918 336.53H161.905L165.262 341.685C166.077 342.948 166.804 344.147 167.444 345.281C168.083 346.4 168.738 347.495 169.41 348.566H167.204C167.891 347.495 168.531 346.4 169.122 345.281C169.714 344.147 170.425 342.948 171.256 341.685L174.685 336.53H179.576L169.53 351.204V348.039L180.007 363H175.044L171.088 357.03C170.289 355.799 169.578 354.64 168.954 353.553C168.331 352.466 167.691 351.411 167.036 350.388H169.266C168.611 351.411 167.987 352.466 167.396 353.553C166.82 354.64 166.125 355.799 165.31 357.03L161.306 363H156.367Z" fill="#585858"/>
<path d="M119.943 460.871L130.516 445.67L130.492 448.93L120.494 434.401H125.481L128.838 439.556C129.653 440.818 130.381 442.017 131.02 443.152C131.659 444.271 132.315 445.366 132.986 446.437H130.78C131.467 445.366 132.107 444.271 132.698 443.152C133.29 442.017 134.001 440.818 134.832 439.556L138.261 434.401H143.152L133.106 449.074V445.909L143.584 460.871H138.62L134.664 454.9C133.865 453.67 133.154 452.511 132.53 451.424C131.907 450.337 131.268 449.282 130.612 448.259H132.842C132.187 449.282 131.563 450.337 130.972 451.424C130.397 452.511 129.701 453.67 128.886 454.9L124.882 460.871H119.943Z" fill="#585858"/>
<path d="M422.775 215.262L433.348 200.061L433.324 203.322L423.326 188.792H428.313L431.67 193.947C432.485 195.21 433.213 196.409 433.852 197.544C434.491 198.663 435.147 199.757 435.818 200.828H433.612C434.3 199.757 434.939 198.663 435.53 197.544C436.122 196.409 436.833 195.21 437.664 193.947L441.093 188.792H445.984L435.938 203.466V200.301L446.416 215.262H441.452L437.496 209.292C436.697 208.061 435.986 206.902 435.362 205.816C434.739 204.729 434.1 203.674 433.444 202.651H435.674C435.019 203.674 434.395 204.729 433.804 205.816C433.229 206.902 432.533 208.061 431.718 209.292L427.714 215.262H422.775Z" fill="#585858"/>
<path d="M424.427 268.262L435.001 253.061L434.977 256.322L424.979 241.792H429.966L433.322 246.947C434.138 248.21 434.865 249.409 435.504 250.544C436.144 251.663 436.799 252.757 437.47 253.828H435.265C435.952 252.757 436.591 251.663 437.183 250.544C437.774 249.409 438.485 248.21 439.317 246.947L442.745 241.792H447.636L437.59 256.466V253.301L448.068 268.262H443.105L439.149 262.292C438.349 261.061 437.638 259.902 437.015 258.816C436.391 257.729 435.752 256.674 435.097 255.651H437.326C436.671 256.674 436.048 257.729 435.456 258.816C434.881 259.902 434.186 261.061 433.37 262.292L429.366 268.262H424.427Z" fill="#585858"/>
<path d="M424.427 320.55L435.001 305.349L434.977 308.61L424.979 294.08H429.966L433.322 299.235C434.138 300.498 434.865 301.696 435.504 302.831C436.144 303.95 436.799 305.045 437.47 306.116H435.265C435.952 305.045 436.591 303.95 437.183 302.831C437.774 301.696 438.485 300.498 439.317 299.235L442.745 294.08H447.636L437.59 308.753V305.589L448.068 320.55H443.105L439.149 314.58C438.349 313.349 437.638 312.19 437.015 311.103C436.391 310.016 435.752 308.961 435.097 307.938H437.326C436.671 308.961 436.048 310.016 435.456 311.103C434.881 312.19 434.186 313.349 433.37 314.58L429.366 320.55H424.427Z" fill="#585858"/>
<path d="M432.982 363L443.555 347.799L443.531 351.06L433.533 336.53H438.52L441.877 341.685C442.692 342.948 443.42 344.147 444.059 345.281C444.698 346.4 445.354 347.495 446.025 348.566H443.819C444.507 347.495 445.146 346.4 445.737 345.281C446.329 344.147 447.04 342.948 447.871 341.685L451.3 336.53H456.191L446.145 351.204V348.039L456.623 363H451.659L447.703 357.03C446.904 355.799 446.193 354.64 445.569 353.553C444.946 352.466 444.307 351.411 443.651 350.388H445.881C445.226 351.411 444.602 352.466 444.011 353.553C443.436 354.64 442.74 355.799 441.925 357.03L437.921 363H432.982Z" fill="#585858"/>
<path d="M248.027 363L258.6 347.799L258.576 351.06L248.578 336.53H253.565L256.922 341.685C257.737 342.948 258.465 344.147 259.104 345.281C259.743 346.4 260.399 347.495 261.07 348.566H258.864C259.551 347.495 260.191 346.4 260.782 345.281C261.374 344.147 262.085 342.948 262.916 341.685L266.345 336.53H271.236L261.19 351.204V348.039L271.668 363H266.704L262.748 357.03C261.949 355.799 261.238 354.64 260.614 353.553C259.991 352.466 259.352 351.411 258.696 350.388H260.926C260.271 351.411 259.647 352.466 259.056 353.553C258.481 354.64 257.785 355.799 256.97 357.03L252.966 363H248.027Z" fill="#585858"/>
<path d="M211.603 460.871L222.177 445.67L222.153 448.93L212.154 434.401H217.142L220.498 439.556C221.313 440.818 222.041 442.017 222.68 443.152C223.319 444.271 223.975 445.366 224.646 446.437H222.44C223.128 445.366 223.767 444.271 224.358 443.152C224.95 442.017 225.661 440.818 226.492 439.556L229.921 434.401H234.812L224.766 449.074V445.909L235.244 460.871H230.281L226.324 454.9C225.525 453.67 224.814 452.511 224.191 451.424C223.567 450.337 222.928 449.282 222.272 448.259H224.502C223.847 449.282 223.224 450.337 222.632 451.424C222.057 452.511 221.361 453.67 220.546 454.9L216.542 460.871H211.603Z" fill="#585858"/>
<path d="M97.0268 460.871L107.6 445.67L107.576 448.93L97.5783 434.401H102.565L105.922 439.556C106.737 440.818 107.465 442.017 108.104 443.152C108.743 444.271 109.399 445.366 110.07 446.437H107.864C108.551 445.366 109.191 444.271 109.782 443.152C110.374 442.017 111.085 440.818 111.916 439.556L115.345 434.401H120.236L110.19 449.074V445.909L120.668 460.871H115.704L111.748 454.9C110.949 453.67 110.238 452.511 109.614 451.424C108.991 450.337 108.352 449.282 107.696 448.259H109.926C109.271 449.282 108.647 450.337 108.056 451.424C107.481 452.511 106.785 453.67 105.97 454.9L101.966 460.871H97.0268Z" fill="#585858"/>
<path d="M759.304 89.5566L769.878 74.3556L769.854 77.6164L759.856 63.0867H764.843L768.199 68.2416C769.015 69.5044 769.742 70.7032 770.381 71.8381C771.021 72.957 771.676 74.0519 772.347 75.1229H770.141C770.829 74.0519 771.468 72.957 772.06 71.8381C772.651 70.7032 773.362 69.5044 774.193 68.2416L777.622 63.0867H782.513L772.467 77.7603V74.5954L782.945 89.5566H777.982L774.026 83.5865C773.226 82.3557 772.515 81.1969 771.892 80.1099C771.268 79.023 770.629 77.9681 769.974 76.9451H772.203C771.548 77.9681 770.925 79.023 770.333 80.1099C769.758 81.1969 769.063 82.3557 768.247 83.5865L764.243 89.5566H759.304ZM785.678 89.5566L796.252 74.3556L796.228 77.6164L786.23 63.0867H791.217L794.573 68.2416C795.389 69.5044 796.116 70.7032 796.755 71.8381C797.395 72.957 798.05 74.0519 798.721 75.1229H796.515C797.203 74.0519 797.842 72.957 798.434 71.8381C799.025 70.7032 799.736 69.5044 800.567 68.2416L803.996 63.0867H808.887L798.841 77.7603V74.5954L809.319 89.5566H804.356L800.4 83.5865C799.6 82.3557 798.889 81.1969 798.266 80.1099C797.642 79.023 797.003 77.9681 796.348 76.9451H798.577C797.922 77.9681 797.299 79.023 796.707 80.1099C796.132 81.1969 795.437 82.3557 794.621 83.5865L790.617 89.5566H785.678ZM812.052 89.5566L822.626 74.3556L822.602 77.6164L812.604 63.0867H817.591L820.947 68.2416C821.763 69.5044 822.49 70.7032 823.129 71.8381C823.769 72.957 824.424 74.0519 825.095 75.1229H822.89C823.577 74.0519 824.216 72.957 824.808 71.8381C825.399 70.7032 826.11 69.5044 826.942 68.2416L830.37 63.0867H835.261L825.215 77.7603V74.5954L835.693 89.5566H830.73L826.774 83.5865C825.974 82.3557 825.263 81.1969 824.64 80.1099C824.016 79.023 823.377 77.9681 822.722 76.9451H824.951C824.296 77.9681 823.673 79.023 823.081 80.1099C822.506 81.1969 821.811 82.3557 820.995 83.5865L816.991 89.5566H812.052Z" fill="#585858"/>
</svg>
