<svg width="294" height="544" viewBox="0 0 294 544" fill="none" xmlns="http://www.w3.org/2000/svg">
<path fill-rule="evenodd" clip-rule="evenodd" d="M0.5 82.5L44.4606 1H293.5V274.5H107.5V543H0.5V82.5ZM214.5 81.5H107.5V206.5H214.5V81.5Z" fill="#585858"/>
<path d="M44.4606 1V0.5H44.1622L44.0205 0.762632L44.4606 1ZM0.5 82.5L0.0599358 82.2626L0 82.3737V82.5H0.5ZM293.5 1H294V0.5H293.5V1ZM293.5 274.5V275H294V274.5H293.5ZM107.5 274.5V274H107V274.5H107.5ZM107.5 543V543.5H108V543H107.5ZM0.5 543H0V543.5H0.5V543ZM107.5 81.5V81H107V81.5H107.5ZM214.5 81.5H215V81H214.5V81.5ZM107.5 206.5H107V207H107.5V206.5ZM214.5 206.5V207H215V206.5H214.5ZM44.0205 0.762632L0.0599358 82.2626L0.940064 82.7374L44.9007 1.23737L44.0205 0.762632ZM293.5 0.5H44.4606V1.5H293.5V0.5ZM294 274.5V1H293V274.5H294ZM107.5 275H293.5V274H107.5V275ZM108 543V274.5H107V543H108ZM0.5 543.5H107.5V542.5H0.5V543.5ZM0 82.5V543H1V82.5H0ZM107.5 82H214.5V81H107.5V82ZM108 206.5V81.5H107V206.5H108ZM214.5 206H107.5V207H214.5V206ZM214 81.5V206.5H215V81.5H214Z" fill="#585858"/>
</svg>
