<svg width="490" height="545" viewBox="0 0 490 545" fill="none" xmlns="http://www.w3.org/2000/svg">
<path fill-rule="evenodd" clip-rule="evenodd" d="M196.5 544V1H489V270.235V463.481L445.848 544H196.5ZM304.5 463.481V83.0001H381.5V463.481H304.5Z" fill="#585858"/>
<path d="M196.5 1V0.5H196V1H196.5ZM196.5 544H196V544.5H196.5V544ZM489 1H489.5V0.5H489V1ZM489 463.481L489.441 463.717L489.5 463.607V463.481H489ZM445.848 544V544.5H446.148L446.289 544.236L445.848 544ZM304.5 83.0001V82.5001H304V83.0001H304.5ZM304.5 463.481H304V463.981H304.5V463.481ZM381.5 83.0001H382V82.5001H381.5V83.0001ZM381.5 463.481V463.981H382V463.481H381.5ZM196 1V544H197V1H196ZM489 0.5H196.5V1.5H489V0.5ZM489.5 270.235V1H488.5V270.235H489.5ZM489.5 463.481V270.235H488.5V463.481H489.5ZM488.559 463.245L445.408 543.764L446.289 544.236L489.441 463.717L488.559 463.245ZM196.5 544.5H445.848V543.5H196.5V544.5ZM304 83.0001V463.481H305V83.0001H304ZM381.5 82.5001H304.5V83.5001H381.5V82.5001ZM382 463.481V83.0001H381V463.481H382ZM304.5 463.981H381.5V462.981H304.5V463.981Z" fill="#585858"/>
<path d="M0.5 542V1L109.5 20.0352V207L281 234.975V322.475L109.5 294.5V542H0.5Z" fill="#585858" stroke="#585858"/>
</svg>
