<svg width="389" height="544" viewBox="0 0 389 544" fill="none" xmlns="http://www.w3.org/2000/svg">
<path fill-rule="evenodd" clip-rule="evenodd" d="M194.921 209.5L84.7923 1H1V206L93.5 274.5L1 340V543H86.1434L194.921 340L303.854 543H388.5V340L296 274.5L388.5 206V1H305.207L194.921 209.5Z" fill="#585858"/>
<path d="M84.7923 1L85.2344 0.766477L85.0937 0.5H84.7923V1ZM194.921 209.5L194.479 209.734L194.92 210.57L195.363 209.734L194.921 209.5ZM1 1V0.5H0.5V1H1ZM1 206H0.5V206.252L0.702438 206.402L1 206ZM93.5 274.5L93.7889 274.908L94.3524 274.509L93.7976 274.098L93.5 274.5ZM1 340L0.711053 339.592L0.5 339.741V340H1ZM1 543H0.5V543.5H1V543ZM86.1434 543V543.5H86.4427L86.5841 543.236L86.1434 543ZM194.921 340L195.361 339.764L194.92 338.942L194.48 339.764L194.921 340ZM303.854 543L303.413 543.236L303.554 543.5H303.854V543ZM388.5 543V543.5H389V543H388.5ZM388.5 340H389V339.741L388.789 339.592L388.5 340ZM296 274.5L295.702 274.098L295.148 274.509L295.711 274.908L296 274.5ZM388.5 206L388.798 206.402L389 206.252V206H388.5ZM388.5 1H389V0.5H388.5V1ZM305.207 1V0.5H304.905L304.765 0.766216L305.207 1ZM84.3502 1.23352L194.479 209.734L195.363 209.266L85.2344 0.766477L84.3502 1.23352ZM1 1.5H84.7923V0.5H1V1.5ZM1.5 206V1H0.5V206H1.5ZM93.7976 274.098L1.29756 205.598L0.702438 206.402L93.2024 274.902L93.7976 274.098ZM1.28895 340.408L93.7889 274.908L93.2111 274.092L0.711053 339.592L1.28895 340.408ZM1.5 543V340H0.5V543H1.5ZM86.1434 542.5H1V543.5H86.1434V542.5ZM194.48 339.764L85.7027 542.764L86.5841 543.236L195.361 340.236L194.48 339.764ZM304.294 542.764L195.361 339.764L194.48 340.236L303.413 543.236L304.294 542.764ZM388.5 542.5H303.854V543.5H388.5V542.5ZM388 340V543H389V340H388ZM295.711 274.908L388.211 340.408L388.789 339.592L296.289 274.092L295.711 274.908ZM388.202 205.598L295.702 274.098L296.298 274.902L388.798 206.402L388.202 205.598ZM388 1V206H389V1H388ZM305.207 1.5H388.5V0.5H305.207V1.5ZM195.363 209.734L305.649 1.23378L304.765 0.766216L194.479 209.266L195.363 209.734Z" fill="#585858"/>
</svg>
