<svg width="657" height="334" viewBox="0 0 657 334" fill="none" xmlns="http://www.w3.org/2000/svg">
<path d="M244.785 179.187L206.687 333.632H454.886L405.977 179.187H244.785Z" fill="#585858"/>
<path d="M405.977 179.187H244.784L290.029 333.632H365.585L405.977 179.187Z" fill="#FF59E1"/>
<path d="M285.645 247.932V179.187H370.364V247.932H345.998V323.135L327.63 306.641L310.011 323.135V247.932H285.645Z" fill="white"/>
<path d="M43.8594 179.19L0 0.75325H656.017L612.158 179.19H43.8594Z" fill="#FF59DF"/>
<rect width="98.9649" height="176.187" transform="matrix(1 0 0 -1 110.96 179.187)" fill="white"/>
<rect x="540.556" y="179.187" width="98.9649" height="176.187" transform="rotate(180 540.556 179.187)" fill="white"/>
<path d="M43.1091 60.7638L34.4873 0.00012207H299.143L286.773 60.7638H232.792L244.788 179.187H207.676L196.43 60.7638H178.811L182.56 179.187H140.942L144.698 60.7638H129.704L115.084 179.187H77.597L88.468 60.7638H43.1091Z" fill="#585858"/>
<path d="M612.157 61.0121L620.778 0.749832H356.122L368.493 61.0121H422.474L410.478 179.187H447.59L458.836 61.0121H476.455L472.706 179.187H514.323L510.567 61.0121H525.562L540.182 179.187H577.669L566.798 61.0121H612.157Z" fill="#585858"/>
</svg>
